<svg xmlns="http://www.w3.org/2000/svg" xmlns:xlink="http://www.w3.org/1999/xlink" viewBox="0 0 24 24" fill="#FFC000">
  <path d="M10.949219 6.9296875C10.770297 6.9383906 10.589578 6.9962813 10.423828 7.1132812L4.65625 11.183594C4.09225 11.581594 4.09225 12.418406 4.65625 12.816406L10.423828 16.886719C11.086828 17.354719 12 16.881312 12 16.070312L12 7.9296875C12 7.3214375 11.485984 6.9035781 10.949219 6.9296875 z M 19.949219 6.9296875C19.770297 6.9383906 19.589578 6.9962813 19.423828 7.1132812L13.65625 11.183594C13.09225 11.581594 13.09225 12.418406 13.65625 12.816406L19.423828 16.886719C20.086828 17.354719 21 16.881312 21 16.070312L21 7.9296875C21 7.3214375 20.485984 6.9035781 19.949219 6.9296875 z" fill="#FFC000" />
</svg>