<svg xmlns="http://www.w3.org/2000/svg" xmlns:xlink="http://www.w3.org/1999/xlink" viewBox="0 0 26 26" fill="#FFC000">
  <path d="M7 0C4.796875 0 3 1.796875 3 4L3 22C3 24.203125 4.796875 26 7 26L19 26C21.203125 26 23 24.203125 23 22L23 8C23 6.9375 22.027344 5.929688 20.28125 4.21875C20.039063 3.980469 19.777344 3.714844 19.53125 3.46875C19.285156 3.222656 19.019531 2.992188 18.78125 2.75C17.070313 1.003906 16.0625 0 15 0 Z M 7 2L14.28125 2C15.003906 2.183594 15 3.050781 15 3.9375L15 7C15 7.550781 15.449219 8 16 8L19 8C19.996094 8 21 8.003906 21 9L21 22C21 23.105469 20.105469 24 19 24L7 24C5.894531 24 5 23.105469 5 22L5 4C5 2.894531 5.894531 2 7 2 Z M 7.8125 10C7.261719 10.050781 6.855469 10.542969 6.90625 11.09375C6.957031 11.644531 7.449219 12.050781 8 12L18 12C18.359375 12.003906 18.695313 11.816406 18.878906 11.503906C19.058594 11.191406 19.058594 10.808594 18.878906 10.496094C18.695313 10.183594 18.359375 9.996094 18 10L8 10C7.96875 10 7.9375 10 7.90625 10C7.875 10 7.84375 10 7.8125 10 Z M 7.8125 14C7.261719 14.050781 6.855469 14.542969 6.90625 15.09375C6.957031 15.644531 7.449219 16.050781 8 16L16 16C16.359375 16.003906 16.695313 15.816406 16.878906 15.503906C17.058594 15.191406 17.058594 14.808594 16.878906 14.496094C16.695313 14.183594 16.359375 13.996094 16 14L8 14C7.96875 14 7.9375 14 7.90625 14C7.875 14 7.84375 14 7.8125 14 Z M 7.8125 18C7.261719 18.050781 6.855469 18.542969 6.90625 19.09375C6.957031 19.644531 7.449219 20.050781 8 20L18 20C18.359375 20.003906 18.695313 19.816406 18.878906 19.503906C19.058594 19.191406 19.058594 18.808594 18.878906 18.496094C18.695313 18.183594 18.359375 17.996094 18 18L8 18C7.96875 18 7.9375 18 7.90625 18C7.875 18 7.84375 18 7.8125 18Z" fill="#FFC000" />
</svg>