<svg xmlns="http://www.w3.org/2000/svg" xmlns:xlink="http://www.w3.org/1999/xlink" viewBox="0 0 24 24" fill="#FFC000">
  <path d="M5.0507812 6.9296875C4.5140156 6.9035781 4 7.3214375 4 7.9296875L4 16.070312C4 16.881312 4.9131719 17.354719 5.5761719 16.886719L11.34375 12.816406C11.90775 12.418406 11.90775 11.581594 11.34375 11.183594L5.5761719 7.1132812C5.4104219 6.9962813 5.2297031 6.9383906 5.0507812 6.9296875 z M 14.050781 6.9296875C13.514016 6.9035781 13 7.3214375 13 7.9296875L13 16.070312C13 16.881312 13.913172 17.354719 14.576172 16.886719L20.34375 12.816406C20.90775 12.418406 20.90775 11.581594 20.34375 11.183594L14.576172 7.1132812C14.410422 6.9962813 14.229703 6.9383906 14.050781 6.9296875 z" fill="#FFC000" />
</svg>