<svg xmlns="http://www.w3.org/2000/svg" xmlns:xlink="http://www.w3.org/1999/xlink" viewBox="0 0 50 50" fill="#FFC000">
  <path d="M3 8C2.734375 8 2.480469 8.105469 2.292969 8.292969C2.105469 8.480469 2 8.734375 2 9L2 26.265625C2.292969 26.097656 2.636719 26 3 26L4 26L4 10L46 10L46 44L30 44L30 45C30 45.363281 29.902344 45.707031 29.734375 46L47 46C47.265625 46 47.519531 45.894531 47.707031 45.707031C47.894531 45.519531 48 45.265625 48 45L48 9C48 8.734375 47.894531 8.480469 47.707031 8.292969C47.519531 8.105469 47.265625 8 47 8 Z M 36 13C35.640625 12.996094 35.304688 13.183594 35.121094 13.496094C34.941406 13.808594 34.941406 14.191406 35.121094 14.503906C35.304688 14.816406 35.640625 15.003906 36 15L39.585938 15L29.292969 25.292969C29.03125 25.542969 28.925781 25.917969 29.019531 26.265625C29.109375 26.617188 29.382813 26.890625 29.734375 26.980469C30.082031 27.074219 30.457031 26.96875 30.707031 26.707031L41 16.414063L41 20C40.996094 20.359375 41.183594 20.695313 41.496094 20.878906C41.808594 21.058594 42.191406 21.058594 42.503906 20.878906C42.816406 20.695313 43.003906 20.359375 43 20L43 13 Z M 3 28C2.449219 28 2 28.449219 2 29L2 45C2 45.550781 2.449219 46 3 46L27 46C27.550781 46 28 45.550781 28 45L28 29C28 28.449219 27.550781 28 27 28Z" fill="#FFC000" />
</svg>