<svg xmlns="http://www.w3.org/2000/svg" xmlns:xlink="http://www.w3.org/1999/xlink" viewBox="0 0 30 30" fill="#FFC000">
  <path d="M1.7070312 0.29296875L0.29296875 1.7070312L4 5.4140625L4 11L9.5859375 11L28.292969 29.707031L29.707031 28.292969L1.7070312 0.29296875 z M 15 3 A 1.0001 1.0001 0 0 0 14.900391 3.0039062C12.762943 3.021705 10.69543 3.6064992 8.8945312 4.671875L10.373047 6.1503906C11.787047 5.4113906 13.367 5 15 5C20.534534 5 25 9.4654664 25 15 A 1.0001 1.0001 0 1 0 27 15C27 8.3845336 21.615466 3 15 3 z M 4 14 A 1 1 0 0 0 3 15 A 1 1 0 0 0 4 16 A 1 1 0 0 0 5 15 A 1 1 0 0 0 4 14 z M 4.8378906 18.210938 A 1 1 0 0 0 3.8378906 19.210938 A 1 1 0 0 0 4.8378906 20.210938 A 1 1 0 0 0 5.8378906 19.210938 A 1 1 0 0 0 4.8378906 18.210938 z M 25.162109 18.210938 A 1 1 0 0 0 24.162109 19.210938 A 1 1 0 0 0 25.162109 20.210938 A 1 1 0 0 0 26.162109 19.210938 A 1 1 0 0 0 25.162109 18.210938 z M 7.2226562 21.777344 A 1 1 0 0 0 6.2226562 22.777344 A 1 1 0 0 0 7.2226562 23.777344 A 1 1 0 0 0 8.2226562 22.777344 A 1 1 0 0 0 7.2226562 21.777344 z M 10.789062 24.162109 A 1 1 0 0 0 9.7890625 25.162109 A 1 1 0 0 0 10.789062 26.162109 A 1 1 0 0 0 11.789062 25.162109 A 1 1 0 0 0 10.789062 24.162109 z M 19.210938 24.162109 A 1 1 0 0 0 18.210938 25.162109 A 1 1 0 0 0 19.210938 26.162109 A 1 1 0 0 0 20.210938 25.162109 A 1 1 0 0 0 19.210938 24.162109 z M 15 25 A 1 1 0 0 0 14 26 A 1 1 0 0 0 15 27 A 1 1 0 0 0 16 26 A 1 1 0 0 0 15 25 z" fill="#FFC000" />
</svg>