<svg xmlns="http://www.w3.org/2000/svg" xmlns:xlink="http://www.w3.org/1999/xlink" viewBox="0 0 26 26" fill="#FFC000">
  <path d="M21.5625 0.171875L10.453125 3.570313C9.105469 3.953125 8.015625 5.355469 8.015625 6.703125L8.015625 18.261719C8.015625 18.261719 8.015625 18.417969 8.015625 18.421875C8.015625 18.421875 7.210938 17.878906 5.417969 18.132813C2.785156 18.507813 0.648438 20.527344 0.648438 22.648438C0.648438 24.769531 2.785156 26.066406 5.417969 25.691406C8.054688 25.320313 9.984375 23.363281 9.984375 21.242188C9.984375 21.242188 9.984375 12.175781 9.984375 11.234375C9.984375 10.296875 11.113281 9.890625 11.113281 9.890625L20.9375 6.8125C20.9375 6.8125 22.023438 6.449219 22.023438 7.453125C22.023438 8.460938 22.023438 15.484375 22.023438 15.484375C22.023438 15.484375 22.023438 15.488281 22.023438 15.492188C22.023438 15.492188 21.023438 14.914063 19.230469 15.132813C16.597656 15.453125 14.460938 17.429688 14.460938 19.550781C14.460938 21.671875 16.597656 23.011719 19.230469 22.691406C21.863281 22.375 24 20.394531 24 18.273438L24 1.910156C24 0.566406 22.90625 -0.214844 21.5625 0.171875Z" fill="#FFC000" />
</svg>