<svg xmlns="http://www.w3.org/2000/svg" xmlns:xlink="http://www.w3.org/1999/xlink" viewBox="0 0 80 80" fill="#FFAA00">
  <path d="M9 11C6.8026661 11 5 12.802666 5 15L5 27L5 28L5 65C5 67.197334 6.8026661 69 9 69L71 69C73.197334 69 75 67.197334 75 65L75 27C75 24.802666 73.197334 23 71 23L70 23L70 21C70 18.802666 68.197334 17 66 17L28.166016 17L27.205078 14.693359L27.205078 14.691406C26.27448 12.459084 24.086456 11 21.667969 11L9 11 z M 9 13L21.667969 13C23.284912 13 24.7376 13.968195 25.359375 15.460938L26.833984 19L66 19C67.116666 19 68 19.883334 68 21L68 23L9 23C8.2573422 23 7.5981308 23.261659 7 23.619141L7 15C7 13.883334 7.8833339 13 9 13 z M 9 25L71 25C72.116666 25 73 25.883334 73 27L73 65C73 66.116666 72.116666 67 71 67L9 67C7.8833339 67 7 66.116666 7 65L7 28L7 27C7 25.883334 7.8833339 25 9 25 z M 69 26 A 1 1 0 0 0 68 27 A 1 1 0 0 0 69 28 A 1 1 0 0 0 70 27 A 1 1 0 0 0 69 26 z M 50 30L33.363281 31.773438C32.027281 31.888437 31 33.007656 31 34.347656L31 39L31 49.765625C30.283593 49.283408 29.422893 49 28.5 49C26.026563 49 24 51.026563 24 53.5C24 55.973437 26.026563 58 28.5 58C30.954068 58 32.962746 56.003668 32.994141 53.556641L33 53.556641L33 38.791016L48 37.232422L48 48.765625C47.283593 48.283408 46.422893 48 45.5 48C43.026563 48 41 50.026563 41 52.5C41 54.973437 43.026563 57 45.5 57C47.973437 57 50 54.973437 50 52.5C50 52.367126 49.972389 52.241378 49.960938 52.111328L50 52.111328L50 37.023438L50 30 z M 69 30 A 1 1 0 0 0 68 31 A 1 1 0 0 0 69 32 A 1 1 0 0 0 70 31 A 1 1 0 0 0 69 30 z M 48 32.224609L48 35.220703L33 36.78125L33 34.347656C33 34.047656 33.233219 33.793672 33.574219 33.763672L48 32.224609 z M 69 34 A 1 1 0 0 0 68 35 A 1 1 0 0 0 69 36 A 1 1 0 0 0 70 35 A 1 1 0 0 0 69 34 z M 69 38 A 1 1 0 0 0 68 39 A 1 1 0 0 0 69 40 A 1 1 0 0 0 70 39 A 1 1 0 0 0 69 38 z M 69 42 A 1 1 0 0 0 68 43 A 1 1 0 0 0 69 44 A 1 1 0 0 0 70 43 A 1 1 0 0 0 69 42 z M 69 46 A 1 1 0 0 0 68 47 A 1 1 0 0 0 69 48 A 1 1 0 0 0 70 47 A 1 1 0 0 0 69 46 z M 45.5 50C46.892557 50 48 51.107443 48 52.5C48 53.892557 46.892557 55 45.5 55C44.107443 55 43 53.892557 43 52.5C43 51.107443 44.107443 50 45.5 50 z M 69 50 A 1 1 0 0 0 68 51 A 1 1 0 0 0 69 52 A 1 1 0 0 0 70 51 A 1 1 0 0 0 69 50 z M 28.5 51C29.892557 51 31 52.107443 31 53.5C31 54.892557 29.892557 56 28.5 56C27.107443 56 26 54.892557 26 53.5C26 52.107443 27.107443 51 28.5 51 z M 69 54 A 1 1 0 0 0 68 55 A 1 1 0 0 0 69 56 A 1 1 0 0 0 70 55 A 1 1 0 0 0 69 54 z M 69 58 A 1 1 0 0 0 68 59 A 1 1 0 0 0 69 60 A 1 1 0 0 0 70 59 A 1 1 0 0 0 69 58 z M 9 62 A 1 1 0 0 0 8 63 A 1 1 0 0 0 9 64 A 1 1 0 0 0 10 63 A 1 1 0 0 0 9 62 z M 13 62 A 1 1 0 0 0 12 63 A 1 1 0 0 0 13 64 A 1 1 0 0 0 14 63 A 1 1 0 0 0 13 62 z M 17 62 A 1 1 0 0 0 16 63 A 1 1 0 0 0 17 64 A 1 1 0 0 0 18 63 A 1 1 0 0 0 17 62 z M 21 62 A 1 1 0 0 0 20 63 A 1 1 0 0 0 21 64 A 1 1 0 0 0 22 63 A 1 1 0 0 0 21 62 z M 25 62 A 1 1 0 0 0 24 63 A 1 1 0 0 0 25 64 A 1 1 0 0 0 26 63 A 1 1 0 0 0 25 62 z M 29 62 A 1 1 0 0 0 28 63 A 1 1 0 0 0 29 64 A 1 1 0 0 0 30 63 A 1 1 0 0 0 29 62 z M 33 62 A 1 1 0 0 0 32 63 A 1 1 0 0 0 33 64 A 1 1 0 0 0 34 63 A 1 1 0 0 0 33 62 z M 37 62 A 1 1 0 0 0 36 63 A 1 1 0 0 0 37 64 A 1 1 0 0 0 38 63 A 1 1 0 0 0 37 62 z M 41 62 A 1 1 0 0 0 40 63 A 1 1 0 0 0 41 64 A 1 1 0 0 0 42 63 A 1 1 0 0 0 41 62 z M 45 62 A 1 1 0 0 0 44 63 A 1 1 0 0 0 45 64 A 1 1 0 0 0 46 63 A 1 1 0 0 0 45 62 z M 49 62 A 1 1 0 0 0 48 63 A 1 1 0 0 0 49 64 A 1 1 0 0 0 50 63 A 1 1 0 0 0 49 62 z M 53 62 A 1 1 0 0 0 52 63 A 1 1 0 0 0 53 64 A 1 1 0 0 0 54 63 A 1 1 0 0 0 53 62 z M 57 62 A 1 1 0 0 0 56 63 A 1 1 0 0 0 57 64 A 1 1 0 0 0 58 63 A 1 1 0 0 0 57 62 z M 61 62 A 1 1 0 0 0 60 63 A 1 1 0 0 0 61 64 A 1 1 0 0 0 62 63 A 1 1 0 0 0 61 62 z M 65 62 A 1 1 0 0 0 64 63 A 1 1 0 0 0 65 64 A 1 1 0 0 0 66 63 A 1 1 0 0 0 65 62 z M 69 62 A 1 1 0 0 0 68 63 A 1 1 0 0 0 69 64 A 1 1 0 0 0 70 63 A 1 1 0 0 0 69 62 z" fill="#FFAA00" />
</svg>