<svg xmlns="http://www.w3.org/2000/svg" xmlns:xlink="http://www.w3.org/1999/xlink" viewBox="0 0 80 80" fill="#FFC000">
  <path d="M11 10 A 1.0001 1.0001 0 0 0 10 11L10 27 A 1.0001 1.0001 0 1 0 12 27L12 12L26 12L26 27 A 1.0001 1.0001 0 1 0 28 27L28 11 A 1.0001 1.0001 0 0 0 27 10L11 10 z M 32 10 A 1.0001 1.0001 0 0 0 31 11L31 27 A 1.0001 1.0001 0 1 0 33 27L33 12L47 12L47 27 A 1.0001 1.0001 0 1 0 49 27L49 11 A 1.0001 1.0001 0 0 0 48 10L32 10 z M 53 10 A 1.0001 1.0001 0 0 0 52 11L52 27 A 1.0001 1.0001 0 1 0 54 27L54 12L68 12L68 27 A 1.0001 1.0001 0 1 0 70 27L70 11 A 1.0001 1.0001 0 0 0 69 10L53 10 z M 15 26 A 1 1 0 0 0 14 27 A 1 1 0 0 0 15 28 A 1 1 0 0 0 16 27 A 1 1 0 0 0 15 26 z M 19 26 A 1 1 0 0 0 18 27 A 1 1 0 0 0 19 28 A 1 1 0 0 0 20 27 A 1 1 0 0 0 19 26 z M 23 26 A 1 1 0 0 0 22 27 A 1 1 0 0 0 23 28 A 1 1 0 0 0 24 27 A 1 1 0 0 0 23 26 z M 36 26 A 1 1 0 0 0 35 27 A 1 1 0 0 0 36 28 A 1 1 0 0 0 37 27 A 1 1 0 0 0 36 26 z M 40 26 A 1 1 0 0 0 39 27 A 1 1 0 0 0 40 28 A 1 1 0 0 0 41 27 A 1 1 0 0 0 40 26 z M 44 26 A 1 1 0 0 0 43 27 A 1 1 0 0 0 44 28 A 1 1 0 0 0 45 27 A 1 1 0 0 0 44 26 z M 57 26 A 1 1 0 0 0 56 27 A 1 1 0 0 0 57 28 A 1 1 0 0 0 58 27 A 1 1 0 0 0 57 26 z M 61 26 A 1 1 0 0 0 60 27 A 1 1 0 0 0 61 28 A 1 1 0 0 0 62 27 A 1 1 0 0 0 61 26 z M 65 26 A 1 1 0 0 0 64 27 A 1 1 0 0 0 65 28 A 1 1 0 0 0 66 27 A 1 1 0 0 0 65 26 z M 11 31 A 1.0001 1.0001 0 0 0 10 32L10 48 A 1.0001 1.0001 0 1 0 12 48L12 33L26 33L26 48 A 1.0001 1.0001 0 1 0 28 48L28 32 A 1.0001 1.0001 0 0 0 27 31L11 31 z M 32 31 A 1.0001 1.0001 0 0 0 31 32L31 48 A 1.0001 1.0001 0 1 0 33 48L33 33L47 33L47 48 A 1.0001 1.0001 0 1 0 49 48L49 32 A 1.0001 1.0001 0 0 0 48 31L32 31 z M 53 31 A 1.0001 1.0001 0 0 0 52 32L52 48 A 1.0001 1.0001 0 1 0 54 48L54 33L68 33L68 45 A 1.0001 1.0001 0 1 0 70 45L70 32 A 1.0001 1.0001 0 0 0 69 31L53 31 z M 15 47 A 1 1 0 0 0 14 48 A 1 1 0 0 0 15 49 A 1 1 0 0 0 16 48 A 1 1 0 0 0 15 47 z M 19 47 A 1 1 0 0 0 18 48 A 1 1 0 0 0 19 49 A 1 1 0 0 0 20 48 A 1 1 0 0 0 19 47 z M 23 47 A 1 1 0 0 0 22 48 A 1 1 0 0 0 23 49 A 1 1 0 0 0 24 48 A 1 1 0 0 0 23 47 z M 36 47 A 1 1 0 0 0 35 48 A 1 1 0 0 0 36 49 A 1 1 0 0 0 37 48 A 1 1 0 0 0 36 47 z M 40 47 A 1 1 0 0 0 39 48 A 1 1 0 0 0 40 49 A 1 1 0 0 0 41 48 A 1 1 0 0 0 40 47 z M 44 47 A 1 1 0 0 0 43 48 A 1 1 0 0 0 44 49 A 1 1 0 0 0 45 48 A 1 1 0 0 0 44 47 z M 64 48C55.175289 48 48 55.175289 48 64C48 72.824711 55.175289 80 64 80C72.824711 80 80 72.824711 80 64C80 55.175289 72.824711 48 64 48 z M 64 50C71.743831 50 78 56.256169 78 64C78 71.743831 71.743831 78 64 78C56.256169 78 50 71.743831 50 64C50 56.256169 56.256169 50 64 50 z M 11 52 A 1.0001 1.0001 0 0 0 10 53L10 69 A 1.0001 1.0001 0 1 0 12 69L12 54L26 54L26 69 A 1.0001 1.0001 0 1 0 28 69L28 53 A 1.0001 1.0001 0 0 0 27 52L11 52 z M 32 52 A 1.0001 1.0001 0 0 0 31 53L31 69 A 1.0001 1.0001 0 1 0 33 69L33 54L48 54 A 1.0001 1.0001 0 1 0 48 52L32 52 z M 60 57L60 60L57 60L57 62L60 62L60 66L57 66L57 68L60 68L60 71L62 71L62 68L66 68L66 71L68 71L68 68L71 68L71 66L68 66L68 62L71 62L71 60L68 60L68 57L66 57L66 60L62 60L62 57L60 57 z M 62 62L66 62L66 66L62 66L62 62 z M 15 68 A 1 1 0 0 0 14 69 A 1 1 0 0 0 15 70 A 1 1 0 0 0 16 69 A 1 1 0 0 0 15 68 z M 19 68 A 1 1 0 0 0 18 69 A 1 1 0 0 0 19 70 A 1 1 0 0 0 20 69 A 1 1 0 0 0 19 68 z M 23 68 A 1 1 0 0 0 22 69 A 1 1 0 0 0 23 70 A 1 1 0 0 0 24 69 A 1 1 0 0 0 23 68 z M 36 68 A 1 1 0 0 0 35 69 A 1 1 0 0 0 36 70 A 1 1 0 0 0 37 69 A 1 1 0 0 0 36 68 z M 40 68 A 1 1 0 0 0 39 69 A 1 1 0 0 0 40 70 A 1 1 0 0 0 41 69 A 1 1 0 0 0 40 68 z M 44 68 A 1 1 0 0 0 43 69 A 1 1 0 0 0 44 70 A 1 1 0 0 0 45 69 A 1 1 0 0 0 44 68 z" fill="#FFC000" />
</svg>