<svg xmlns="http://www.w3.org/2000/svg" xmlns:xlink="http://www.w3.org/1999/xlink" viewBox="0 0 30 30" fill="#FFC000">
  <path d="M27.054688 4.0175781L20.580078 5.4042969C19.658078 5.6012969 19 6.416375 19 7.359375L19 18.712891C19 20.661891 13 19.032516 13 24.478516C13 25.478516 13.602797 27.998047 16.466797 27.998047C19.986797 27.999047 21 25.323516 21 22.353516L21 10.537109L27.080078 9.203125C27.617078 9.085125 28 8.6095938 28 8.0585938L28 4.78125C28 4.28325 27.540688 3.9125781 27.054688 4.0175781 z M 4 6C3.448 6 3 6.448 3 7C3 7.552 3.448 8 4 8L16 8C16.552 8 17 7.552 17 7C17 6.448 16.552 6 16 6L4 6 z M 4 11C3.448 11 3 11.448 3 12C3 12.552 3.448 13 4 13L16 13C16.552 13 17 12.552 17 12C17 11.448 16.552 11 16 11L4 11 z M 4 16C3.448 16 3 16.448 3 17C3 17.552 3.448 18 4 18L16 18C16.552 18 17 17.552 17 17C17 16.448 16.552 16 16 16L4 16 z M 4 21C3.448 21 3 21.448 3 22C3 22.552 3.448 23 4 23L11.134766 23C11.279766 22.213 11.537094 21.552 11.871094 21L4 21 z" fill="#FFC000" />
</svg>