<svg xmlns="http://www.w3.org/2000/svg" xmlns:xlink="http://www.w3.org/1999/xlink" viewBox="0 0 24 24" fill="#FFC000">
  <path d="M17 2L17 6L7 6C3.699219 6 1 8.699219 1 12C1 12.699219 1.105469 13.398438 1.40625 14L3.09375 12.59375C2.992188 12.394531 3 12.199219 3 12C3 9.800781 4.800781 8 7 8L17 8L17 12L23 7 Z M 22.59375 10L20.90625 11.40625C20.90625 11.605469 21 11.894531 21 12.09375C21 14.292969 19.199219 16.09375 17 16.09375L7 16.09375L7 12L1 17L7 22L7 18L17 18C20.300781 18 23 15.300781 23 12C23 11.300781 22.894531 10.601563 22.59375 10Z" fill="#FFC000" />
</svg>