<svg xmlns="http://www.w3.org/2000/svg" xmlns:xlink="http://www.w3.org/1999/xlink" viewBox="0 0 50 50" fill="#FFC000">
  <path d="M25 2C18.272325 2 12.20948 4.9067015 8 9.5253906L8 5 A 2.0002 2.0002 0 0 0 5.9707031 2.9726562 A 2.0002 2.0002 0 0 0 4 5L4 16L15 16 A 2.0002 2.0002 0 1 0 15 12L11.144531 12C14.608106 8.3080175 19.524201 6 25 6C35.517124 6 44 14.482876 44 25C44 35.517124 35.517124 44 25 44C14.482876 44 6 35.517124 6 25 A 2.0002 2.0002 0 1 0 2 25C2 37.678876 12.321124 48 25 48C37.678876 48 48 37.678876 48 25C48 12.321124 37.678876 2 25 2 z M 25 18C21.157696 18 18 21.157696 18 25C18 28.842304 21.157696 32 25 32C28.842304 32 32 28.842304 32 25C32 21.157696 28.842304 18 25 18 z M 25 22C26.680544 22 28 23.319456 28 25C28 26.680544 26.680544 28 25 28C23.319456 28 22 26.680544 22 25C22 23.319456 23.319456 22 25 22 z" fill="#FFC000" />
</svg>