<svg xmlns="http://www.w3.org/2000/svg" xmlns:xlink="http://www.w3.org/1999/xlink" viewBox="0 0 26 26" fill="#FFC000">
  <path d="M10 0.1875C4.578125 0.1875 0.1875 4.578125 0.1875 10C0.1875 15.421875 4.578125 19.8125 10 19.8125C12.289063 19.8125 14.394531 19.003906 16.0625 17.6875L16.9375 18.5625C16.570313 19.253906 16.699219 20.136719 17.28125 20.71875L21.875 25.34375C22.589844 26.058594 23.753906 26.058594 24.46875 25.34375L25.34375 24.46875C26.058594 23.753906 26.058594 22.589844 25.34375 21.875L20.71875 17.28125C20.132813 16.695313 19.253906 16.59375 18.5625 16.96875L17.6875 16.09375C19.011719 14.421875 19.8125 12.300781 19.8125 10C19.8125 4.578125 15.421875 0.1875 10 0.1875 Z M 10 2C14.417969 2 18 5.582031 18 10C18 14.417969 14.417969 18 10 18C5.582031 18 2 14.417969 2 10C2 5.582031 5.582031 2 10 2 Z M 4.9375 7.46875C4.421875 8.304688 4.125 9.289063 4.125 10.34375C4.125 13.371094 6.566406 15.8125 9.59375 15.8125C10.761719 15.8125 11.859375 15.433594 12.75 14.8125C12.511719 14.839844 12.246094 14.84375 12 14.84375C8.085938 14.84375 4.9375 11.695313 4.9375 7.78125C4.9375 7.675781 4.933594 7.574219 4.9375 7.46875Z" fill="#FFC000" />
</svg>