<svg xmlns="http://www.w3.org/2000/svg" xmlns:xlink="http://www.w3.org/1999/xlink" viewBox="0 0 48 48" fill="#FFC000">
  <path d="M9.5 7C7.019 7 5 9.019 5 11.5L5 36.5C5 38.981 7.019 41 9.5 41L23.474609 41C22.985609 40.062 22.611328 39.055 22.361328 38L9.5 38C8.673 38 8 37.327 8 36.5L8 11.5C8 10.673 8.673 10 9.5 10L12.84375 10C13.50175 10 14.145328 10.267422 14.611328 10.732422L19.439453 15.560547C19.720453 15.841547 20.102 16 20.5 16L29.777344 16 A 1.50015 1.50015 0 0 0 30.269531 16L38.5 16C39.327 16 40 16.673 40 17.5L40 23C41.084 23.452 42.088 24.053578 43 24.767578L43 17.5C43 15.787614 42.026907 14.313016 40.615234 13.552734 A 1.5005306 1.5005306 0 0 0 40.515625 13.439453L35.6875 8.6113281C34.656543 7.580371 33.256941 7 31.798828 7L22.574219 7 A 1.50015 1.50015 0 0 0 22.443359 7.0058594C22.409974 7.00525 22.377201 7 22.34375 7L13.302734 7 A 1.50015 1.50015 0 0 0 13.099609 7.0136719C13.013989 7.0097511 12.930041 7 12.84375 7L9.5 7 z M 18.121094 10L22.34375 10C23.005637 10 23.642285 10.263379 24.111328 10.732422L26.378906 13L21.121094 13L18.121094 10 z M 27.621094 10L31.798828 10C32.460715 10 33.09541 10.263379 33.564453 10.732422L35.832031 13L30.621094 13L27.621094 10 z M 35 24C28.925 24 24 28.925 24 35C24 41.075 28.925 46 35 46C41.075 46 46 41.075 46 35C46 28.925 41.075 24 35 24 z M 30 29C30.25575 29 30.511531 29.097469 30.707031 29.292969L35 33.585938L39.292969 29.292969C39.683969 28.901969 40.316031 28.901969 40.707031 29.292969C41.098031 29.683969 41.098031 30.316031 40.707031 30.707031L36.414062 35L40.707031 39.292969C41.098031 39.683969 41.098031 40.316031 40.707031 40.707031C40.512031 40.902031 40.256 41 40 41C39.744 41 39.487969 40.902031 39.292969 40.707031L35 36.414062L30.707031 40.707031C30.512031 40.902031 30.256 41 30 41C29.744 41 29.487969 40.902031 29.292969 40.707031C28.901969 40.316031 28.901969 39.683969 29.292969 39.292969L33.585938 35L29.292969 30.707031C28.901969 30.316031 28.901969 29.683969 29.292969 29.292969C29.488469 29.097469 29.74425 29 30 29 z" fill="#FFC000" />
</svg>