<svg xmlns="http://www.w3.org/2000/svg" xmlns:xlink="http://www.w3.org/1999/xlink" viewBox="0 0 30 30" fill="#FFC000">
  <path d="M8 7 A 1.0001 1.0001 0 0 0 7.8886719 7.0058594C3.5337373 7.0663982 0 10.631126 0 15C0 19.371502 3.5379402 22.937792 7.8964844 22.994141 A 1.0001 1.0001 0 0 0 8 23L22 23C26.052135 23 29.281986 19.915394 29.796875 16L30 16L30 15C30 10.593562 26.406438 7 22 7L8 7 z M 8 9C11.325553 9 14 11.674447 14 15C14 18.325553 11.325553 21 8 21C4.6744469 21 2 18.325553 2 15C2 11.674447 4.6744469 9 8 9 z M 13.271484 9L22 9C25.325562 9 28 11.674438 28 15C28 18.325562 25.325562 21 22 21L13.271484 21C14.93967 19.532053 16 17.387963 16 15C16 12.612037 14.93967 10.467947 13.271484 9 z" fill="#FFC000" />
</svg>